<svg width="1613" height="847" xmlns="http://www.w3.org/2000/svg" xmlns:xlink="http://www.w3.org/1999/xlink" xml:space="preserve" overflow="hidden"><defs><clipPath id="clip0"><rect x="589" y="330" width="1613" height="847"/></clipPath></defs><g clip-path="url(#clip0)" transform="translate(-589 -330)"><g><path d="M834.5 972.532 2151.5 972.532M834.5 873.529 2151.5 873.529M834.5 775.526 2151.5 775.526M834.5 676.522 2151.5 676.522M834.5 577.519 2151.5 577.519M834.5 479.516 2151.5 479.516M834.5 380.5 2151.5 380.5" stroke="#DCDCDC" stroke-width="3.4375" stroke-linejoin="round" stroke-miterlimit="10" fill="none"/></g><g><path d="M834.5 1071.5 2151.5 1071.5" stroke="#DCDCDC" stroke-width="3.4375" stroke-linejoin="round" stroke-miterlimit="10" fill="none" fill-rule="evenodd"/></g><g><path d="M881 744.024 976.032 687.023 1070.04 631.021 1164.04 582.019 1258.04 562.018 1352.04 522.017 1446.05 488.016 1540.05 474 1634.05 523.017 1728.06 544.018 1822.06 547.018 1916.06 571.019 2010.07 671.022 2104 751" stroke="#0D3FA9" stroke-width="10.3125" stroke-linecap="round" stroke-linejoin="round" stroke-miterlimit="10" fill="none"/></g><g><path d="M892.219 744.5C892.219 750.575 887.294 755.499 881.219 755.499 875.145 755.499 870.22 750.575 870.22 744.5 870.22 738.425 875.145 733.5 881.219 733.5 887.294 733.5 892.219 738.425 892.219 744.5Z" stroke="#0D3FA9" stroke-width="6.875" stroke-linejoin="round" stroke-miterlimit="10" fill="#FFBF01"/><path d="M986.219 687.5C986.219 693.575 981.295 698.499 975.22 698.499 969.145 698.499 964.22 693.575 964.22 687.5 964.22 681.425 969.145 676.5 975.22 676.5 981.295 676.5 986.219 681.425 986.219 687.5Z" stroke="#0D3FA9" stroke-width="6.875" stroke-linejoin="round" stroke-miterlimit="10" fill="#FFBF01"/><path d="M1080.22 630.5C1080.22 636.575 1075.29 641.499 1069.22 641.499 1063.14 641.499 1058.22 636.575 1058.22 630.5 1058.22 624.425 1063.14 619.5 1069.22 619.5 1075.29 619.5 1080.22 624.425 1080.22 630.5Z" stroke="#0D3FA9" stroke-width="6.875" stroke-linejoin="round" stroke-miterlimit="10" fill="#FFBF01"/><path d="M1174.22 581.5C1174.22 587.575 1169.29 592.499 1163.22 592.499 1157.14 592.499 1152.22 587.575 1152.22 581.5 1152.22 575.425 1157.14 570.5 1163.22 570.5 1169.29 570.5 1174.22 575.425 1174.22 581.5Z" stroke="#0D3FA9" stroke-width="6.875" stroke-linejoin="round" stroke-miterlimit="10" fill="#FFBF01"/><path d="M1268.22 562.5C1268.22 568.574 1263.29 573.499 1257.22 573.499 1251.14 573.499 1246.22 568.574 1246.22 562.5 1246.22 556.425 1251.14 551.5 1257.22 551.5 1263.29 551.5 1268.22 556.425 1268.22 562.5Z" stroke="#0D3FA9" stroke-width="6.875" stroke-linejoin="round" stroke-miterlimit="10" fill="#FFBF01"/><path d="M1362.22 521.5C1362.22 527.575 1357.29 532.499 1351.22 532.499 1345.14 532.499 1340.22 527.575 1340.22 521.5 1340.22 515.425 1345.14 510.5 1351.22 510.5 1357.29 510.5 1362.22 515.425 1362.22 521.5Z" stroke="#0D3FA9" stroke-width="6.875" stroke-linejoin="round" stroke-miterlimit="10" fill="#FFBF01"/><path d="M1456.22 487.5C1456.22 493.574 1451.29 498.499 1445.22 498.499 1439.14 498.499 1434.22 493.574 1434.22 487.5 1434.22 481.425 1439.14 476.5 1445.22 476.5 1451.29 476.5 1456.22 481.425 1456.22 487.5Z" stroke="#0D3FA9" stroke-width="6.875" stroke-linejoin="round" stroke-miterlimit="10" fill="#FFBF01"/><path d="M1550.22 473.5C1550.22 479.575 1545.29 484.499 1539.22 484.499 1533.14 484.499 1528.22 479.575 1528.22 473.5 1528.22 467.425 1533.14 462.5 1539.22 462.5 1545.29 462.5 1550.22 467.425 1550.22 473.5Z" stroke="#0D3FA9" stroke-width="6.875" stroke-linejoin="round" stroke-miterlimit="10" fill="#FFBF01"/><path d="M1644.22 523.5C1644.22 529.575 1639.29 534.499 1633.22 534.499 1627.14 534.499 1622.22 529.575 1622.22 523.5 1622.22 517.425 1627.14 512.5 1633.22 512.5 1639.29 512.5 1644.22 517.425 1644.22 523.5Z" stroke="#0D3FA9" stroke-width="6.875" stroke-linejoin="round" stroke-miterlimit="10" fill="#FFBF01"/><path d="M1738.22 544.5C1738.22 550.575 1733.29 555.499 1727.22 555.499 1721.14 555.499 1716.22 550.575 1716.22 544.5 1716.22 538.425 1721.14 533.5 1727.22 533.5 1733.29 533.5 1738.22 538.425 1738.22 544.5Z" stroke="#0D3FA9" stroke-width="6.875" stroke-linejoin="round" stroke-miterlimit="10" fill="#FFBF01"/><path d="M1833.22 546.5C1833.22 552.575 1828.29 557.499 1822.22 557.499 1816.14 557.499 1811.22 552.575 1811.22 546.5 1811.22 540.425 1816.14 535.5 1822.22 535.5 1828.29 535.5 1833.22 540.425 1833.22 546.5Z" stroke="#0D3FA9" stroke-width="6.875" stroke-linejoin="round" stroke-miterlimit="10" fill="#FFBF01"/><path d="M1927.22 571.5C1927.22 577.575 1922.29 582.499 1916.22 582.499 1910.14 582.499 1905.22 577.575 1905.22 571.5 1905.22 565.425 1910.14 560.5 1916.22 560.5 1922.29 560.5 1927.22 565.425 1927.22 571.5Z" stroke="#0D3FA9" stroke-width="6.875" stroke-linejoin="round" stroke-miterlimit="10" fill="#FFBF01"/><path d="M2021.22 671.5C2021.22 677.575 2016.29 682.499 2010.22 682.499 2004.14 682.499 1999.22 677.575 1999.22 671.5 1999.22 665.425 2004.14 660.5 2010.22 660.5 2016.29 660.5 2021.22 665.425 2021.22 671.5Z" stroke="#0D3FA9" stroke-width="6.875" stroke-linejoin="round" stroke-miterlimit="10" fill="#FFBF01"/><path d="M2115.22 751.5C2115.22 757.575 2110.29 762.499 2104.22 762.499 2098.14 762.499 2093.22 757.575 2093.22 751.5 2093.22 745.425 2098.14 740.5 2104.22 740.5 2110.29 740.5 2115.22 745.425 2115.22 751.5Z" stroke="#0D3FA9" stroke-width="6.875" stroke-linejoin="round" stroke-miterlimit="10" fill="#FFBF01"/></g><g><text fill="#686868" font-family="Aptos,Aptos_MSFontService,sans-serif" font-weight="400" font-size="41" transform="matrix(1 0 0 1 696.428 1083)">$0.00</text></g><g><text fill="#686868" font-family="Aptos,Aptos_MSFontService,sans-serif" font-weight="400" font-size="41" transform="matrix(1 0 0 1 618.512 984)">$1,000.00</text></g><g><text fill="#686868" font-family="Aptos,Aptos_MSFontService,sans-serif" font-weight="400" font-size="41" transform="matrix(1 0 0 1 618.512 885)">$2,000.00</text></g><g><text fill="#686868" font-family="Aptos,Aptos_MSFontService,sans-serif" font-weight="400" font-size="41" transform="matrix(1 0 0 1 618.512 787)">$3,000.00</text></g><g><text fill="#686868" font-family="Aptos,Aptos_MSFontService,sans-serif" font-weight="400" font-size="41" transform="matrix(1 0 0 1 618.512 688)">$4,000.00</text></g><g><text fill="#686868" font-family="Aptos,Aptos_MSFontService,sans-serif" font-weight="400" font-size="41" transform="matrix(1 0 0 1 618.512 589)">$5,000.00</text></g><g><text fill="#686868" font-family="Aptos,Aptos_MSFontService,sans-serif" font-weight="400" font-size="41" transform="matrix(1 0 0 1 618.512 491)">$6,000.00</text></g><g><text fill="#686868" font-family="Aptos,Aptos_MSFontService,sans-serif" font-weight="400" font-size="41" transform="matrix(1 0 0 1 618.512 392)">$7,000.00</text></g><g><text fill="#686868" font-family="Aptos,Aptos_MSFontService,sans-serif" font-weight="400" font-size="41" transform="matrix(1 0 0 1 837.408 1136)">1997</text></g><g><text fill="#686868" font-family="Aptos,Aptos_MSFontService,sans-serif" font-weight="400" font-size="41" transform="matrix(1 0 0 1 1025.51 1136)">1999</text></g><g><text fill="#686868" font-family="Aptos,Aptos_MSFontService,sans-serif" font-weight="400" font-size="41" transform="matrix(1 0 0 1 1213.61 1136)">2001</text></g><g><text fill="#686868" font-family="Aptos,Aptos_MSFontService,sans-serif" font-weight="400" font-size="41" transform="matrix(1 0 0 1 1401.71 1136)">2003</text></g><g><text fill="#686868" font-family="Aptos,Aptos_MSFontService,sans-serif" font-weight="400" font-size="41" transform="matrix(1 0 0 1 1589.81 1136)">2005</text></g><g><text fill="#686868" font-family="Aptos,Aptos_MSFontService,sans-serif" font-weight="400" font-size="41" transform="matrix(1 0 0 1 1777.91 1136)">2007</text></g><g><text fill="#686868" font-family="Aptos,Aptos_MSFontService,sans-serif" font-weight="400" font-size="41" transform="matrix(1 0 0 1 1966.01 1136)">2009</text></g><g><text font-family="Aptos,Aptos_MSFontService,sans-serif" font-weight="400" font-size="50" transform="matrix(1 0 0 1 872.522 892)">Antioco </text></g><g><text font-family="Aptos,Aptos_MSFontService,sans-serif" font-weight="400" font-size="50" transform="matrix(1 0 0 1 872.522 954)">joins as </text></g><g><g><text font-family="Aptos,Aptos_MSFontService,sans-serif" font-weight="400" font-size="50" transform="matrix(1 0 0 1 872.522 1015)">CEO</text></g></g><g><text font-family="Aptos,Aptos_MSFontService,sans-serif" font-weight="400" font-size="50" transform="matrix(1 0 0 1 1585.19 900)">Antioco </text></g><g><text font-family="Aptos,Aptos_MSFontService,sans-serif" font-weight="400" font-size="50" transform="matrix(1 0 0 1 1585.19 962)">departs</text></g><g><text font-family="Aptos,Aptos_MSFontService,sans-serif" font-weight="400" font-size="50" transform="matrix(1 0 0 1 1152.07 897)">Reforms</text></g><g><text font-family="Aptos,Aptos_MSFontService,sans-serif" font-weight="400" font-size="50" transform="matrix(1 0 0 1 1346.81 897)">are </text></g><g><text font-family="Aptos,Aptos_MSFontService,sans-serif" font-weight="400" font-size="50" transform="matrix(1 0 0 1 1152.07 959)">enacted</text></g><g><path d="M993.873 832.351 964.662 750.957 966.819 750.183 996.03 831.577ZM954.347 759.528 958 729 980.231 750.239Z" fill="#C00000"/></g><g><path d="M0.938354-0.657591 222.75 315.858 220.874 317.174-0.938354 0.657591ZM230.442 304.871 234.964 335.283 207.921 320.653Z" fill="#C00000" transform="matrix(1 0 0 -1 1280 839.283)"/></g><g><path d="M0.882598-0.730723 189.539 227.136 187.774 228.598-0.882598 0.730723ZM196.324 215.568 203.27 245.519 175.142 233.105Z" fill="#C00000" transform="matrix(1 0 0 -1 1674 831.519)"/></g><g><text font-family="Aptos,Aptos_MSFontService,sans-serif" font-weight="400" font-size="50" transform="matrix(1 0 0 1 1870.15 908)">Blockbuster </text></g><g><text font-family="Aptos,Aptos_MSFontService,sans-serif" font-weight="400" font-size="50" transform="matrix(1 0 0 1 1870.15 970)">files </text></g><g><text font-family="Aptos,Aptos_MSFontService,sans-serif" font-weight="400" font-size="50" transform="matrix(1 0 0 1 1870.15 1031)">bankruptcy</text></g><g><path d="M0.750499-0.865843 62.6257 52.7667 61.1247 54.4983-0.750499 0.865843ZM67.4178 40.2403 79.1921 68.6425 49.4058 61.0206Z" fill="#C00000" transform="matrix(1 0 0 -1 2022 844.642)"/></g></g></svg>